HIERARCHY
ROOT Hips
{
 OFFSET 0.000000 0.000000 0.000000
 CHANNELS 6 Xposition Yposition Zposition Yrotation Xrotation Zrotation
 JOINT Chest
 {
  OFFSET 0.000000 9.585900 0.002600
  CHANNELS 3 Yrotation Xrotation Zrotation
  JOINT Chest2
  {
   OFFSET 0.000000 9.601200 -0.005300
   CHANNELS 3 Yrotation Xrotation Zrotation
   JOINT Chest3
   {
    OFFSET 0.000000 9.561800 0.000000
    CHANNELS 3 Yrotation Xrotation Zrotation
    JOINT Chest4
    {
     OFFSET 0.000000 9.552100 0.000000
     CHANNELS 3 Yrotation Xrotation Zrotation
     JOINT Neck
     {
      OFFSET 0.000000 14.453000 0.000000
      CHANNELS 3 Yrotation Xrotation Zrotation
      JOINT Head
      {
       OFFSET 0.000000 8.936500 -0.011300
       CHANNELS 3 Yrotation Xrotation Zrotation
       End Site
       {
        OFFSET 0.000000 17.073600 -0.006000
       }
      }
     }
     JOINT RightCollar
     {
      OFFSET -2.921100 9.558500 0.000000
      CHANNELS 3 Yrotation Xrotation Zrotation
      JOINT RightShoulder
      {
       OFFSET -13.519700 0.000000 0.000000
       CHANNELS 3 Yrotation Xrotation Zrotation
       JOINT RightElbow
       {
        OFFSET 0.000000 -29.696600 0.000000
        CHANNELS 3 Yrotation Xrotation Zrotation
        JOINT RightWrist
        {
         OFFSET 0.000000 -24.004700 0.000000
         CHANNELS 3 Yrotation Xrotation Zrotation
         End Site
         {
          OFFSET 0.000000 -17.728500 0.000000
         }
        }
       }
      }
     }
     JOINT LeftCollar
     {
      OFFSET 2.921100 9.558500 0.000000
      CHANNELS 3 Yrotation Xrotation Zrotation
      JOINT LeftShoulder
      {
       OFFSET 13.519700 0.000000 0.000000
       CHANNELS 3 Yrotation Xrotation Zrotation
       JOINT LeftElbow
       {
        OFFSET 0.000000 -29.696600 0.000000
        CHANNELS 3 Yrotation Xrotation Zrotation
        JOINT LeftWrist
        {
         OFFSET 0.000000 -24.004700 0.000000
         CHANNELS 3 Yrotation Xrotation Zrotation
         End Site
         {
          OFFSET 0.000000 -17.728500 0.000000
         }
        }
       }
      }
     }
    }
   }
  }
 }
 JOINT RightHip
 {
  OFFSET -7.771700 -0.012900 -0.001300
  CHANNELS 3 Yrotation Xrotation Zrotation
  JOINT RightKnee
  {
   OFFSET 0.000000 -40.869800 0.001200
   CHANNELS 3 Yrotation Xrotation Zrotation
   JOINT RightAnkle
   {
    OFFSET 0.000000 -39.717900 0.002100
    CHANNELS 3 Yrotation Xrotation Zrotation
    JOINT RightToe
    {
     OFFSET 0.000000 -4.965400 11.033500
     CHANNELS 3 Yrotation Xrotation Zrotation
     End Site
     {
      OFFSET 0.000000 -1.423100 5.872300
     }
    }
   }
  }
 }
 JOINT LeftHip
 {
  OFFSET 7.771700 -0.012900 -0.001300
  CHANNELS 3 Yrotation Xrotation Zrotation
  JOINT LeftKnee
  {
   OFFSET 0.000000 -40.869800 0.001200
   CHANNELS 3 Yrotation Xrotation Zrotation
   JOINT LeftAnkle
   {
    OFFSET 0.000000 -39.717900 0.002100
    CHANNELS 3 Yrotation Xrotation Zrotation
    JOINT LeftToe
    {
     OFFSET 0.000000 -4.965400 11.033500
     CHANNELS 3 Yrotation Xrotation Zrotation
     End Site
     {
      OFFSET 0.000000 -1.423100 5.872300
     }
    }
   }
  }
 }
}
MOTION
Frames: 11
Frame Time: 0.008333
-10.664875 56.283481 41.713674 154.349299 -66.788156 9.824384 8.150717 22.408659 7.343457 1.105943 3.548918 0.845413 1.834388 5.707410 1.381720 6.816057 18.829409 5.511236 -2.202318 27.066570 0.307602 -3.990860 14.522393 1.017676 3.844577 5.029692 -4.022558 17.008797 -42.574428 -6.669413 153.805221 -30.390944 -161.897542 -2.855152 -6.732645 -27.470117 -8.640735 -1.900360 10.960118 -14.589168 -36.659330 -5.873437 -142.907450 -30.036324 145.775808 -12.754368 -14.597430 8.950494 21.245502 -14.814078 11.516502 -15.979805 62.570066 -7.708232 -4.446400 42.308753 -8.386299 -3.041175 -25.996017 12.991321 -9.808247 -11.501005 1.296713 31.708238 60.154184 21.540384 -13.883396 45.655711 0.197628 1.949372 -29.524502 -7.733188
-10.666777 56.283741 41.712546 154.352144 -66.785244 9.815209 8.126626 22.385369 7.350859 1.113995 3.550756 0.840063 1.807883 5.674444 1.387371 6.811746 18.833014 5.510752 -2.191923 27.116371 0.290259 -3.965559 14.579384 0.998699 3.901547 5.078355 -4.046680 17.080523 -42.616267 -6.704159 153.715779 -30.405691 -161.841902 -2.728560 -6.654223 -27.530588 -8.658095 -1.872033 10.899905 -14.691436 -36.534917 -6.080995 -142.587055 -29.729555 145.777024 -12.787275 -14.645855 9.076953 21.243356 -14.816922 11.520433 -15.979612 62.570124 -7.709440 -4.441996 42.301263 -8.378106 -3.040215 -25.990487 12.986095 -9.810519 -11.505383 1.302918 31.683337 60.169954 21.517901 -13.862443 45.637891 0.212043 1.958035 -29.513571 -7.745570
-10.670267 56.284000 41.710901 154.390627 -66.782350 9.781700 8.106043 22.372190 7.348634 1.105096 3.527088 0.842315 1.804354 5.668288 1.385505 6.790760 18.806149 5.515724 -2.177674 27.173250 0.282056 -3.938918 14.645200 0.982307 3.965834 5.138319 -4.057031 17.152103 -42.644067 -6.752391 153.614732 -30.324868 -161.762279 -2.611716 -6.505557 -27.614917 -8.676132 -1.822848 10.847318 -14.798578 -36.403117 -6.348223 -142.277733 -29.403149 145.787209 -12.812982 -14.700096 9.229734 21.238003 -14.819750 11.512181 -15.978301 62.572453 -7.700541 -4.443751 42.293728 -8.374692 -3.039237 -25.987298 12.983306 -9.824511 -11.514494 1.293103 31.685419 60.174343 21.524870 -13.836504 45.627741 0.230329 1.951769 -29.505925 -7.752851
-10.673622 56.284777 41.708998 154.406609 -66.780471 9.767542 8.094836 22.359948 7.347393 1.104280 3.506870 0.841114 1.799773 5.655732 1.384906 6.782601 18.788059 5.518325 -2.163148 27.196023 0.291711 -3.913348 14.742228 0.967381 4.047136 5.167275 -4.061052 17.176544 -42.650454 -6.772840 153.528590 -30.220821 -161.675837 -2.505537 -6.338526 -27.692127 -8.710113 -1.770453 10.806806 -14.900485 -36.262731 -6.666251 -142.009289 -29.079573 145.819620 -12.831173 -14.755245 9.384990 21.236928 -14.820961 11.506314 -15.962365 62.576471 -7.680612 -4.451568 42.286904 -8.375843 -3.041287 -25.984376 12.984631 -9.830784 -11.518689 1.287172 31.683442 60.175286 21.527461 -13.837283 45.625955 0.228879 1.949100 -29.506171 -7.753856
-10.676940 56.285492 41.707125 154.416567 -66.777320 9.758017 8.086465 22.334181 7.345990 1.110736 3.499701 0.839647 1.794221 5.653106 1.385353 6.786693 18.760616 5.519194 -2.148325 27.239512 0.297303 -3.887667 14.822850 0.973127 4.058526 5.215952 -4.053992 17.242646 -42.674739 -6.801114 153.504703 -30.137709 -161.616923 -2.409821 -6.195305 -27.754151 -8.773039 -1.714251 10.764639 -14.987400 -36.105423 -7.018295 -141.801701 -28.776764 145.886293 -12.848660 -14.809653 9.517692 21.235496 -14.823369 11.503115 -15.946481 62.580258 -7.665266 -4.456716 42.280699 -8.376185 -3.037310 -25.982954 12.984773 -9.833121 -11.523197 1.283871 31.683906 60.174601 21.531714 -13.843091 45.627860 0.223561 1.950367 -29.508645 -7.753121
-10.679875 56.286387 41.705311 154.427614 -66.775748 9.745152 8.092553 22.297611 7.350693 1.111399 3.505458 0.839927 1.781862 5.669171 1.387911 6.806317 18.717522 5.517259 -2.154050 27.285218 0.306726 -3.850960 14.900367 0.973990 4.053594 5.256560 -4.044302 17.364402 -42.717210 -6.847220 153.471951 -30.081397 -161.545721 -2.326395 -6.069974 -27.811595 -8.864899 -1.657103 10.716165 -15.061989 -35.931220 -7.388647 -141.656268 -28.500287 145.987801 -12.862236 -14.862340 9.618112 21.240550 -14.823308 11.499920 -15.936971 62.583487 -7.648498 -4.452137 42.257110 -8.370572 -3.037272 -25.965865 12.984220 -9.836981 -11.527803 1.283372 31.673717 60.182975 21.525401 -13.833398 45.622697 0.228835 1.943990 -29.508210 -7.753488
-10.683294 56.287100 41.703489 154.444613 -66.774279 9.729682 8.105364 22.268820 7.354550 1.109130 3.504629 0.840766 1.778591 5.656673 1.388835 6.823160 18.704565 5.523971 -2.164482 27.326944 0.317707 -3.838627 14.942050 0.978957 4.058781 5.279765 -4.035025 17.523628 -42.761550 -6.908948 153.421347 -30.058128 -161.467464 -2.194890 -5.943051 -27.872173 -8.975022 -1.597406 10.661297 -15.127104 -35.746177 -7.764326 -141.569415 -28.256295 146.121844 -12.865356 -14.907801 9.688485 21.242749 -14.822906 11.492548 -15.924067 62.587619 -7.628778 -4.447413 42.236887 -8.362385 -3.040978 -25.951460 12.982587 -9.843147 -11.532944 1.279041 31.658705 60.187741 21.514287 -13.811358 45.625442 0.232864 1.940913 -29.510881 -7.752085
-10.685785 56.287195 41.702249 154.471843 -66.771330 9.699031 8.121577 22.238084 7.364183 1.106227 3.503803 0.841686 1.803595 5.616611 1.386130 6.816751 18.718453 5.539963 -2.150915 27.368202 0.333478 -3.844225 14.983114 0.996104 4.049718 5.296611 -4.032600 17.663294 -42.789873 -6.948658 153.417062 -30.050039 -161.422281 -2.174826 -5.784515 -27.913783 -9.095140 -1.534276 10.606186 -15.192543 -35.562178 -8.137610 -141.530070 -28.056210 146.280944 -12.857641 -14.944525 9.733345 21.242022 -14.826786 11.492745 -15.926454 62.587999 -7.623789 -4.438784 42.220055 -8.353897 -3.039875 -25.939024 12.979902 -9.850913 -11.541102 1.284292 31.654902 60.191767 21.515230 -13.810891 45.633353 0.226885 1.946425 -29.517698 -7.750183
-10.688735 56.286085 41.701432 154.531525 -66.764792 9.641108 8.117130 22.212757 7.368141 1.107714 3.499778 0.841637 1.798595 5.617506 1.388485 6.848716 18.690979 5.534618 -2.142498 27.406020 0.354617 -3.796472 15.116813 0.998327 4.028474 5.306773 -4.029420 17.802156 -42.809781 -6.977590 153.421952 -30.061477 -161.392010 -2.164990 -5.646487 -27.965618 -9.182781 -1.482756 10.592454 -15.296402 -35.397735 -8.545759 -141.517647 -27.905651 146.448567 -12.846481 -14.971887 9.758418 21.238741 -14.835733 11.487923 -15.946732 62.585588 -7.629088 -4.429288 42.205099 -8.347950 -3.039163 -25.927278 12.979675 -9.855404 -11.560863 1.286962 31.646771 60.197993 21.520164 -13.801678 45.650105 0.241118 1.936717 -29.532014 -7.749777
-10.692368 56.285009 41.700399 154.563517 -66.758907 9.614738 8.110103 22.200628 7.364555 1.108279 3.498449 0.841546 1.806932 5.608232 1.386113 6.861019 18.684870 5.534838 -2.120121 27.424312 0.356279 -3.789220 15.190148 1.021408 4.025350 5.287462 -4.086176 17.890234 -42.820638 -6.936670 153.434567 -30.087383 -161.379975 -2.145673 -5.535818 -28.020343 -9.309846 -1.438661 10.516289 -15.413285 -35.239864 -8.868968 -141.509337 -27.796986 146.613510 -12.841136 -14.989694 9.771300 21.237628 -14.842712 11.480064 -15.959438 62.588470 -7.636002 -4.422824 42.194460 -8.343968 -3.037854 -25.920801 12.980419 -9.860487 -11.574393 1.285708 31.637013 60.203877 21.514055 -13.811540 45.653994 0.244295 1.965681 -29.532698 -7.767261
-10.694685 56.284750 41.699295 154.591774 -66.761498 9.587282 8.131355 22.181799 7.368878 1.112324 3.494580 0.841393 1.863737 5.588034 1.363351 6.814953 18.698190 5.576865 -2.063604 27.456671 0.322467 -3.826046 15.196108 1.112699 3.997728 5.290335 -4.109199 18.022556 -42.831981 -6.942787 153.458108 -30.128443 -161.385812 -2.139055 -5.450260 -28.073682 -9.435176 -1.400113 10.445489 -15.574194 -35.097998 -9.171167 -141.480521 -27.710206 146.769825 -12.841804 -15.000780 9.781268 21.230653 -14.842378 11.480947 -15.965596 62.589512 -7.638776 -4.420317 42.191017 -8.341983 -3.037536 -25.919654 12.980591 -9.869567 -11.576743 1.287160 31.631459 60.209926 21.504663 -13.761211 45.653983 0.267672 1.942474 -29.531933 -7.755756
